<svg aria-hidden="true" style="position: absolute; width: 0; height: 0; overflow: hidden;" version="1.1" xmlns="http://www.w3.org/2000/svg" xmlns:xlink="http://www.w3.org/1999/xlink">
<defs>
<symbol id="icon-icons8-facebook" viewBox="0 0 32 32">
<path fill="#000" style="fill: var(--color1, #000)" d="M16 2.667c-7.364 0-13.333 5.969-13.333 13.333s5.969 13.333 13.333 13.333 13.333-5.969 13.333-13.333-5.969-13.333-13.333-13.333z"></path>
<path fill="#fff" style="fill: var(--color2, #fff)" d="M17.805 19.534h3.451l0.542-3.505h-3.993v-1.916c0-1.456 0.476-2.747 1.838-2.747h2.189v-3.059c-0.385-0.052-1.198-0.165-2.735-0.165-3.209 0-5.091 1.695-5.091 5.556v2.332h-3.299v3.505h3.299v9.635c0.653 0.097 1.315 0.164 1.995 0.164 0.614 0 1.213-0.056 1.805-0.136v-9.663z"></path>
</symbol>
<symbol id="icon-icons8-instagram" viewBox="0 0 32 32">
<path fill="#000" style="fill: var(--color1, #000)" d="M22.678 27.993l-13.333 0.013c-2.933 0.003-5.335-2.395-5.339-5.328l-0.013-13.333c-0.003-2.933 2.395-5.335 5.328-5.339l13.333-0.013c2.933-0.003 5.335 2.395 5.339 5.328l0.013 13.333c0.003 2.934-2.395 5.336-5.328 5.339z"></path>
<path fill="#000" style="fill: var(--color1, #000)" d="M22.678 27.993l-13.333 0.013c-2.933 0.003-5.335-2.395-5.339-5.328l-0.013-13.333c-0.003-2.933 2.395-5.335 5.328-5.339l13.333-0.013c2.933-0.003 5.335 2.395 5.339 5.328l0.013 13.333c0.003 2.934-2.395 5.336-5.328 5.339z"></path>
<path fill="#fff" style="fill: var(--color2, #fff)" d="M16 20.667c-2.573 0-4.667-2.093-4.667-4.667s2.094-4.667 4.667-4.667 4.667 2.093 4.667 4.667-2.094 4.667-4.667 4.667zM16 12.667c-1.838 0-3.333 1.495-3.333 3.333s1.495 3.333 3.333 3.333 3.333-1.495 3.333-3.333-1.495-3.333-3.333-3.333z"></path>
<path fill="#fff" style="fill: var(--color2, #fff)" d="M22 11c0 0.552-0.448 1-1 1s-1-0.448-1-1c0-0.552 0.448-1 1-1s1 0.448 1 1z"></path>
<path fill="#fff" style="fill: var(--color2, #fff)" d="M20 24.667h-8c-2.573 0-4.667-2.093-4.667-4.667v-8c0-2.573 2.094-4.667 4.667-4.667h8c2.573 0 4.667 2.093 4.667 4.667v8c0 2.573-2.094 4.667-4.667 4.667zM12 8.667c-1.838 0-3.333 1.495-3.333 3.333v8c0 1.838 1.495 3.333 3.333 3.333h8c1.838 0 3.333-1.495 3.333-3.333v-8c0-1.838-1.495-3.333-3.333-3.333h-8z"></path>
</symbol>
<symbol id="icon-reshot-icon-right-arrow-button-YAB8GEM7SD-c5f61" viewBox="0 0 32 32">
<path d="M16 32c8.837 0 16-7.163 16-16s-7.163-16-16-16c-8.837 0-16 7.163-16 16v0c0 8.837 7.163 16 16 16v0zM13.938 6.88l9.12 9.226-9.138 9.032-2.24-2.275 6.862-6.787-6.88-6.955z"></path>
</symbol>
<symbol id="icon-icons" viewBox="0 0 32 32">
<path d="M16 32c8.837 0 16-7.163 16-16s-7.163-16-16-16c-8.837 0-16 7.163-16 16v0c0 8.837 7.163 16 16 16v0zM13.938 6.88l9.12 9.226-9.138 9.032-2.24-2.275 6.862-6.787-6.88-6.955z"></path>
</symbol>
<symbol id="icon-facebook2" viewBox="0 0 32 32">
<path d="M29 0h-26c-1.65 0-3 1.35-3 3v26c0 1.65 1.35 3 3 3h13v-14h-4v-4h4v-2c0-3.306 2.694-6 6-6h4v4h-4c-1.1 0-2 0.9-2 2v2h6l-1 4h-5v14h9c1.65 0 3-1.35 3-3v-26c0-1.65-1.35-3-3-3z"></path>
</symbol>
<symbol id="icon-instagram1" viewBox="0 0 32 32">
<path d="M16 2.881c4.275 0 4.781 0.019 6.462 0.094 1.563 0.069 2.406 0.331 2.969 0.55 0.744 0.288 1.281 0.638 1.837 1.194 0.563 0.563 0.906 1.094 1.2 1.838 0.219 0.563 0.481 1.412 0.55 2.969 0.075 1.688 0.094 2.194 0.094 6.463s-0.019 4.781-0.094 6.463c-0.069 1.563-0.331 2.406-0.55 2.969-0.288 0.744-0.637 1.281-1.194 1.837-0.563 0.563-1.094 0.906-1.837 1.2-0.563 0.219-1.413 0.481-2.969 0.55-1.688 0.075-2.194 0.094-6.463 0.094s-4.781-0.019-6.463-0.094c-1.563-0.069-2.406-0.331-2.969-0.55-0.744-0.288-1.281-0.637-1.838-1.194-0.563-0.563-0.906-1.094-1.2-1.837-0.219-0.563-0.481-1.413-0.55-2.969-0.075-1.688-0.094-2.194-0.094-6.463s0.019-4.781 0.094-6.463c0.069-1.563 0.331-2.406 0.55-2.969 0.288-0.744 0.638-1.281 1.194-1.838 0.563-0.563 1.094-0.906 1.838-1.2 0.563-0.219 1.412-0.481 2.969-0.55 1.681-0.075 2.188-0.094 6.463-0.094zM16 0c-4.344 0-4.887 0.019-6.594 0.094-1.7 0.075-2.869 0.35-3.881 0.744-1.056 0.412-1.95 0.956-2.837 1.85-0.894 0.888-1.438 1.781-1.85 2.831-0.394 1.019-0.669 2.181-0.744 3.881-0.075 1.713-0.094 2.256-0.094 6.6s0.019 4.887 0.094 6.594c0.075 1.7 0.35 2.869 0.744 3.881 0.413 1.056 0.956 1.95 1.85 2.837 0.887 0.887 1.781 1.438 2.831 1.844 1.019 0.394 2.181 0.669 3.881 0.744 1.706 0.075 2.25 0.094 6.594 0.094s4.888-0.019 6.594-0.094c1.7-0.075 2.869-0.35 3.881-0.744 1.050-0.406 1.944-0.956 2.831-1.844s1.438-1.781 1.844-2.831c0.394-1.019 0.669-2.181 0.744-3.881 0.075-1.706 0.094-2.25 0.094-6.594s-0.019-4.887-0.094-6.594c-0.075-1.7-0.35-2.869-0.744-3.881-0.394-1.063-0.938-1.956-1.831-2.844-0.887-0.887-1.781-1.438-2.831-1.844-1.019-0.394-2.181-0.669-3.881-0.744-1.712-0.081-2.256-0.1-6.6-0.1v0z"></path>
<path d="M16 7.781c-4.537 0-8.219 3.681-8.219 8.219s3.681 8.219 8.219 8.219 8.219-3.681 8.219-8.219c0-4.537-3.681-8.219-8.219-8.219zM16 21.331c-2.944 0-5.331-2.387-5.331-5.331s2.387-5.331 5.331-5.331c2.944 0 5.331 2.387 5.331 5.331s-2.387 5.331-5.331 5.331z"></path>
<path d="M26.462 7.456c0 1.060-0.859 1.919-1.919 1.919s-1.919-0.859-1.919-1.919c0-1.060 0.859-1.919 1.919-1.919s1.919 0.859 1.919 1.919z"></path>
</symbol>
</defs>
</svg>
